<svg xmlns="http://www.w3.org/2000/svg" width="1627.4022" height="351.7852" viewBox="0 0 1627.4022 351.7852">
  <defs>
    <style>
      .a {
        fill: #1874cd;
      }

      .b {
        fill: #fff;
      }
    </style>
  </defs>
  <g>
    <rect class="a" width="351.7852" height="351.7852" rx="42.3532"/>
    <path class="a" d="M574.8682,153.1019a114.2936,114.2936,0,0,0-34.2141-23.4912,100.86,100.86,0,0,0-41.5366-8.8553l-.4487.0091a118.0054,118.0054,0,0,0-43.0057,9.607,112.1263,112.1263,0,0,0-34.5056,23.3317A110.06,110.06,0,0,0,398.4065,273.25a105.8052,105.8052,0,0,0,23.4821,34.2915,108.7578,108.7578,0,0,0,76.4272,30.611,107.5142,107.5142,0,0,0,77.2174-32.0094,113.1687,113.1687,0,0,0,23.0721-34.2551,106.2721,106.2721,0,0,0-.2277-84.33A113.4778,113.4778,0,0,0,574.8682,153.1019ZM475,285.6446a60.987,60.987,0,0,1-32.2759-32.2873,58.4094,58.4094,0,0,1-4.6714-23.3,59.9543,59.9543,0,0,1,4.701-23.5777,60.8463,60.8463,0,0,1,12.9778-19.41,61.5479,61.5479,0,0,1,19.2707-13.0051,58.5512,58.5512,0,0,1,23.3136-4.6736,60.0371,60.0371,0,0,1,23.5686,4.6964A59.9633,59.9633,0,0,1,554.2787,206.48a60.0358,60.0358,0,0,1,4.701,23.5777,58.5268,58.5268,0,0,1-4.6737,23.3089A61.5683,61.5683,0,0,1,541.3009,272.64,60.8227,60.8227,0,0,1,475,285.6446Z" transform="translate(-21.3598 -22.1074)"/>
    <path class="a" d="M808.7807,153.0974a114.4262,114.4262,0,0,0-34.2142-23.4867,100.8462,100.8462,0,0,0-41.5388-8.8553l-.451.0091a117.9249,117.9249,0,0,0-42.9965,9.607,112.1981,112.1981,0,0,0-34.5148,23.3317A110.0769,110.0769,0,0,0,632.3167,273.25a105.786,105.786,0,0,0,23.4821,34.287,108.7574,108.7574,0,0,0,76.4272,30.6155,92.1441,92.1441,0,0,0,46.1578-12.1761,148.6961,148.6961,0,0,0,14.563-9.452c.3781,5.9035,2.7741,10.4,6.96,14.5812a24.1177,24.1177,0,0,0,41.2155-17.0683v-83.98A104.1627,104.1627,0,0,0,832.29,187.562,113.5288,113.5288,0,0,0,808.7807,153.0974ZM708.9124,285.6446a60.9857,60.9857,0,0,1-32.2736-32.2827,58.4428,58.4428,0,0,1-4.6736-23.3044,59.9872,59.9872,0,0,1,4.701-23.5777,60.9088,60.9088,0,0,1,12.9777-19.41,61.5322,61.5322,0,0,1,19.2731-13.0051,58.5289,58.5289,0,0,1,23.309-4.6736,59.9591,59.9591,0,0,1,23.5686,4.701,59.9379,59.9379,0,0,1,32.3966,32.392,59.983,59.983,0,0,1,4.7009,23.2771,68.681,68.681,0,0,1-5.6211,24.2792,61.858,61.858,0,0,1-13.1782,19.1136,61.0594,61.0594,0,0,1-19.0772,12.6544A60.3845,60.3845,0,0,1,708.9124,285.6446Z" transform="translate(-21.3598 -22.1074)"/>
    <path class="a" d="M1145.0119,153.0974a114.427,114.427,0,0,0-34.2141-23.4867,100.8467,100.8467,0,0,0-41.5389-8.8553l-.4509.0091a117.9254,117.9254,0,0,0-42.9966,9.607,112.1977,112.1977,0,0,0-34.5147,23.3317A110.0769,110.0769,0,0,0,968.548,273.25a105.7844,105.7844,0,0,0,23.4821,34.287,108.7569,108.7569,0,0,0,76.4271,30.6155,92.1444,92.1444,0,0,0,46.1579-12.1761,148.6826,148.6826,0,0,0,14.5629-9.452c.3781,5.9035,2.7742,10.4,6.96,14.5812a24.1176,24.1176,0,0,0,41.2154-17.0683v-83.98a104.1611,104.1611,0,0,0-8.8325-42.4955A113.5252,113.5252,0,0,0,1145.0119,153.0974Zm-99.8682,132.5472a60.9857,60.9857,0,0,1-32.2736-32.2827,58.4411,58.4411,0,0,1-4.6736-23.3044,59.9871,59.9871,0,0,1,4.7009-23.5777,60.9091,60.9091,0,0,1,12.9778-19.41,61.5311,61.5311,0,0,1,19.2731-13.0051,58.5285,58.5285,0,0,1,23.3089-4.6736,59.9588,59.9588,0,0,1,23.5686,4.701,59.9379,59.9379,0,0,1,32.3966,32.392,59.9849,59.9849,0,0,1,4.701,23.2771,68.681,68.681,0,0,1-5.6211,24.2792,61.86,61.86,0,0,1-13.1782,19.1136,61.0594,61.0594,0,0,1-19.0772,12.6544A60.3845,60.3845,0,0,1,1045.1437,285.6446Z" transform="translate(-21.3598 -22.1074)"/>
    <path class="a" d="M940.03,289.9917h-.0228c-6.6182-.1956-11.7536-1.4556-15.2742-3.7481a29.8132,29.8132,0,0,1-9.0063-8.6014,29.0061,29.0061,0,0,1-4.2165-9.4111,37.96,37.96,0,0,1-1.1326-7.1231V81.928a24.0827,24.0827,0,1,0-48.1653,0v179.18a81.7127,81.7127,0,0,0,3.9118,23.4344,76.5261,76.5261,0,0,0,37.0348,44.9494c9.9069,5.44,22.1063,8.3558,36.5026,8.6606a24.0814,24.0814,0,0,0,.3685-48.1607Z" transform="translate(-21.3598 -22.1074)"/>
    <path class="a" d="M1383.0283,152.45a109.8939,109.8939,0,0,0-34.3148-23.1206,108.7474,108.7474,0,0,0-84.6588.0045,108.1711,108.1711,0,0,0-57.4308,57.4308,106.0728,106.0728,0,0,0-8.5787,42.334V314.072a24.0827,24.0827,0,1,0,48.1653,0V229.0989a58.4487,58.4487,0,0,1,4.6669-23.28,60.8966,60.8966,0,0,1,32.2315-32.2315,60.6493,60.6493,0,0,1,46.5459-.0046,60.9127,60.9127,0,0,1,32.2406,32.2315,58.535,58.535,0,0,1,4.6669,23.2844V314.072a24.0827,24.0827,0,1,0,48.1653,0V229.0989a106.2867,106.2867,0,0,0-8.5787-42.3385A109.876,109.876,0,0,0,1383.0283,152.45Z" transform="translate(-21.3598 -22.1074)"/>
    <path class="a" d="M1641.7311,64.8785a24.11,24.11,0,0,0-41.1884,17.0765v61.1524a155.84,155.84,0,0,0-14.2577-9.2759,98.896,98.896,0,0,0-46.3706-12.9963l-.4189-.0091a100.7928,100.7928,0,0,0-41.5208,8.8524,112.89,112.89,0,0,0-57.7048,57.9324,106.2275,106.2275,0,0,0-.2277,84.2985,112.8759,112.8759,0,0,0,23.06,34.244,107.4585,107.4585,0,0,0,77.1946,31.999,109.77,109.77,0,0,0,41.7713-8.0965,108.4275,108.4275,0,0,0,34.6356-22.5091,105.9593,105.9593,0,0,0,23.4745-34.2758,108.3307,108.3307,0,0,0,8.5837-43.1784V81.955A23.6581,23.6581,0,0,0,1641.7311,64.8785ZM1595.8705,253.394a60.39,60.39,0,0,1-79.1391,32.24,60.4384,60.4384,0,0,1-32.4088-32.2494,58.3967,58.3967,0,0,1-4.6676-23.2923,59.9408,59.9408,0,0,1,4.6995-23.5746,59.9127,59.9127,0,0,1,32.3815-32.3724,59.9392,59.9392,0,0,1,23.5609-4.6995,58.4845,58.4845,0,0,1,41.5664,17.0765,62.93,62.93,0,0,1,13.0328,19.3351,70.4315,70.4315,0,0,1,5.6466,24.5354A58.3994,58.3994,0,0,1,1595.8705,253.394Z" transform="translate(-21.3598 -22.1074)"/>
    <g>
      <path class="b" d="M191.3209,106.9678l.0134.1093c1.9667-.1275,3.9221-.3,5.92-.3H288.478a48.93,48.93,0,0,0,48.9291-48.9291H201.1348v.1138c-1.2907-.0387-2.5157-.1138-3.88-.1138C119.97,57.8476,57.0978,120.72,57.0978,198a140.5924,140.5924,0,0,0,1.407,19.6613C82.8286,112.1,190.0936,107.0122,191.3209,106.9678Z" transform="translate(-21.3598 -22.1074)"/>
      <path class="b" d="M312.9426,173.5354H246.1835c-27.0226,0-48.9288,22.5554-48.9288,49.5786h87.5516c-10.7305,38.44-45.9785,67.4082-87.7935,67.4082A91.33,91.33,0,0,1,105.785,199.299a94.7269,94.7269,0,0,1,18.34-55.6025C96.6763,161.7821,70.8872,194.1387,67.89,251.895a140.363,140.363,0,0,0,129.365,86.2574c76.6284,0,139.0551-61.8258,140.1032-138.2093h.0492V173.5354H312.9426Z" transform="translate(-21.3598 -22.1074)"/>
    </g>
  </g>
</svg>
